<svg width="86" height="86" viewBox="0 0 86 86" fill="none" xmlns="http://www.w3.org/2000/svg">
<path fill-rule="evenodd" clip-rule="evenodd" d="M43 78.8333C62.7907 78.8333 78.8333 62.7907 78.8333 43C78.8333 23.2092 62.7907 7.16666 43 7.16666C23.2092 7.16666 7.16663 23.2092 7.16663 43C7.16663 62.7907 23.2092 78.8333 43 78.8333ZM62.246 31.6587C62.4137 31.4861 62.5448 31.2814 62.6316 31.0569C62.7184 30.8324 62.759 30.5927 62.7512 30.3522C62.7433 30.1116 62.687 29.8751 62.5857 29.6568C62.4845 29.4385 62.3402 29.2428 62.1616 29.0814C61.9831 28.9201 61.7738 28.7964 61.5464 28.7177C61.3189 28.6389 61.078 28.6069 60.8378 28.6233C60.5977 28.6398 60.3634 28.7045 60.1488 28.8135C59.9343 28.9225 59.7439 29.0737 59.589 29.2579L38.1266 52.9742L26.3195 41.7028C25.976 41.3745 25.5161 41.1961 25.041 41.2068C24.5659 41.2176 24.1145 41.4166 23.7861 41.7602C23.4578 42.1037 23.2794 42.5636 23.2901 43.0387C23.3009 43.5139 23.4999 43.9652 23.8435 44.2936L36.9835 56.8352L38.3148 58.1073L39.5492 56.7421L62.2443 31.6587H62.246Z" fill="#3C28DC"/>
</svg>
